<?xml version="1.0" encoding="UTF-8"?>
<svg version="1.1" xmlns="http://www.w3.org/2000/svg" width="1000" height="1000">
<path d="M0 0 C0.92017159 -0.00235223 1.84034317 -0.00470446 2.78839874 -0.00712797 C5.86468312 -0.01377268 8.94092481 -0.01336112 12.01721573 -0.01294994 C14.24820718 -0.01625142 16.47919804 -0.01997759 18.71018815 -0.02409142 C24.83632324 -0.03408781 30.96244853 -0.03782443 37.08859062 -0.04048073 C43.0193685 -0.04398924 48.95013963 -0.05213744 54.88091291 -0.06002467 C70.76931466 -0.08083925 86.65771822 -0.09133588 102.54613042 -0.10015428 C110.07209617 -0.10436681 117.59806113 -0.10958811 125.12402621 -0.11483881 C150.91625978 -0.1327303 176.70849358 -0.14772182 202.50073242 -0.155159 C204.11918609 -0.15563374 205.73763976 -0.15610963 207.35609342 -0.15658666 C208.55994135 -0.15694122 208.55994135 -0.15694122 209.78810945 -0.15730295 C213.85391913 -0.15850408 217.91972881 -0.15971955 221.98553848 -0.16094494 C222.79239492 -0.16118509 223.59925135 -0.16142524 224.43055798 -0.16167267 C250.55271307 -0.16955422 276.67482259 -0.1929617 302.7969578 -0.22550088 C330.45172852 -0.25988587 358.10647261 -0.27951834 385.76126504 -0.28280324 C388.80408368 -0.28322073 391.8469023 -0.28370028 394.88972092 -0.28422642 C396.01346105 -0.28441121 396.01346105 -0.28441121 397.15990301 -0.28459973 C409.16064037 -0.28692145 421.16132439 -0.30252402 433.16204282 -0.32306826 C445.25410206 -0.34343836 457.34609801 -0.34875125 469.43817124 -0.33929763 C475.97538913 -0.33457602 482.51246997 -0.33650477 489.04966736 -0.35605907 C561.24591818 -0.55969598 627.08992905 14.43533559 681.47772598 65.13422108 C682.27049942 65.82515858 683.06327286 66.51609608 683.88006973 67.22797108 C731.11549393 108.41905189 757.21478279 170.64177056 762.47772598 232.13422108 C762.92408744 239.91606115 762.88560624 247.70128687 762.85867691 255.4930315 C762.86214511 257.72632315 762.86691738 259.95961308 762.87285864 262.19289953 C762.88523848 268.25084 762.87925847 274.30863643 762.86989999 280.36657703 C762.86376144 286.2537033 762.87183449 292.14080051 762.87934208 298.02792271 C762.89504706 310.79220293 762.8938074 323.5564378 762.88510535 336.32072223 C762.87752912 347.4897491 762.87560228 358.65875943 762.87917328 369.82778835 C762.87951701 370.94336239 762.87951701 370.94336239 762.87986769 372.08147328 C762.88080185 375.10117467 762.88175707 378.12087605 762.88274698 381.14057742 C762.89190263 409.40724937 762.88363707 437.6738926 762.86745629 465.94056011 C762.85321742 491.00537328 762.85449954 516.07014072 762.86883926 541.1349535 C762.88493208 569.35772172 762.89125745 597.58046461 762.88200247 625.80323678 C762.88104045 628.81619155 762.88010192 631.82914632 762.87917328 634.8421011 C762.87881743 635.95473426 762.87881743 635.95473426 762.87845439 637.08984487 C762.87505433 648.24873458 762.87900955 659.40760588 762.88661194 670.56649303 C762.89521944 683.26325084 762.892982 695.95995658 762.87676971 708.65670796 C762.8689204 715.12631456 762.86573814 721.59582868 762.87571716 728.06543446 C762.88473389 734.00119242 762.87961762 739.9367732 762.86378451 745.87251536 C762.86046605 748.00606019 762.86206348 750.13962036 762.86941187 752.27315512 C762.9265776 770.26768733 761.21084328 787.91919087 757.29022598 805.50922108 C757.08373428 806.44145496 756.87724258 807.37368885 756.66449356 808.33417225 C752.58776391 825.92084092 746.40920223 842.92970455 738.47772598 859.13422108 C737.91746719 860.28350086 737.91746719 860.28350086 737.34589005 861.45599842 C727.21819937 881.98544301 714.36627901 900.90207153 698.75897598 917.66547108 C696.8654199 919.7146619 695.07174739 921.80162388 693.29022598 923.94672108 C677.41050559 942.03195819 657.32313688 956.34242188 636.47772598 968.13422108 C635.33569717 968.78149158 635.33569717 968.78149158 634.17059708 969.44183826 C622.33661736 976.0720312 610.20113269 981.4519455 597.47772598 986.13422108 C596.73200333 986.41249744 595.98628067 986.69077381 595.21796036 986.9774828 C586.36767575 990.24215813 577.4344503 992.76874894 568.22772598 994.82172108 C567.38492081 995.01209949 566.54211563 995.20247791 565.6737709 995.39862537 C547.62651614 999.21231583 529.78095927 1000.57873137 511.37492752 1000.52190113 C509.1327143 1000.52608539 506.8905032 1000.53156884 504.64829594 1000.53822094 C498.55149021 1000.55255133 492.45482108 1000.54847001 486.35800827 1000.54105413 C480.4372674 1000.5367841 474.51655347 1000.54666279 468.59582203 1000.55596175 C455.75247603 1000.57553891 442.90917058 1000.57799323 430.06581322 1000.57276655 C418.82141402 1000.56819339 407.57703077 1000.56882836 396.33263206 1000.5746069 C394.81905351 1000.57536379 393.30547495 1000.57611977 391.79189639 1000.57687484 C389.51049862 1000.57802015 387.22910084 1000.57917004 384.94770308 1000.58033408 C363.76080468 1000.59102569 342.57391155 1000.59577831 321.38701153 1000.58786392 C320.58981923 1000.58756675 319.79262694 1000.58726958 318.9712773 1000.5869634 C312.49929319 1000.58451496 306.02730914 1000.58190312 299.5553251 1000.57927926 C274.32980777 1000.56918362 249.10435706 1000.57752473 223.87884903 1000.60077381 C195.474381 1000.62691102 167.06995305 1000.63967689 138.66547257 1000.63258606 C135.63015847 1000.63187011 132.59484437 1000.63119571 129.55953026 1000.63054562 C128.81227467 1000.63037581 128.06501909 1000.630206 127.29511939 1000.63003104 C116.06941226 1000.62773871 104.84374263 1000.63565391 93.6180439 1000.64883709 C80.83320267 1000.66382541 68.04844867 1000.66448944 55.26360916 1000.64676618 C48.75263611 1000.63810904 42.24179488 1000.63599634 35.73082733 1000.65141773 C-29.70460432 1000.79515147 -87.02028862 989.24380053 -140.52227402 949.13422108 C-141.36660995 948.50386951 -142.21094589 947.87351795 -143.08086777 947.22406483 C-151.03593882 941.07162072 -158.25633663 934.07125656 -165.52227402 927.13422108 C-166.32149277 926.37754139 -167.12071152 925.6208617 -167.94414902 924.84125233 C-173.28406987 919.6615291 -177.91582177 913.96701668 -182.52227402 908.13422108 C-183.32793808 907.12230701 -184.13360214 906.11039295 -184.96368027 905.06781483 C-220.28141294 860.28204219 -237.8799082 806.25337693 -237.78969955 749.49861622 C-237.79344287 747.24620695 -237.79804709 744.99379898 -237.8034302 742.74139303 C-237.81559149 736.59332199 -237.81540788 730.44530565 -237.81304145 724.29722536 C-237.81267372 718.33412348 -237.82167586 712.37103729 -237.83026723 706.4079432 C-237.84954481 692.71585709 -237.85523312 679.02378603 -237.85638134 665.33168793 C-237.8573028 654.7511733 -237.86143177 644.17066452 -237.86778259 633.59015179 C-237.86957787 630.53714083 -237.8713575 627.48412987 -237.87313235 624.43111891 C-237.87357444 623.67198245 -237.87401654 622.91284599 -237.87447203 622.13070539 C-237.88676969 600.79556174 -237.89467426 579.46042011 -237.89378548 558.12527275 C-237.89375432 557.32192614 -237.89372316 556.51857953 -237.89369106 555.69088908 C-237.89352486 551.6198277 -237.89332678 547.54876633 -237.89312164 543.47770495 C-237.89308175 542.66927786 -237.89304186 541.86085077 -237.89300076 541.02792589 C-237.89291989 539.39309056 -237.89283629 537.75825523 -237.89274998 536.1234199 C-237.89152525 510.70406445 -237.90652785 485.28476242 -237.93389511 459.86542225 C-237.96468009 431.26032658 -237.98182373 402.65526599 -237.97996867 374.05015272 C-237.97981942 370.99431256 -237.979722 367.93847241 -237.97966003 364.88263226 C-237.97963673 364.13029245 -237.97961342 363.37795264 -237.9795894 362.60281465 C-237.9795281 350.54613839 -237.99224723 338.48950887 -238.00952456 326.43284647 C-238.02655764 314.29476247 -238.02839528 302.15674614 -238.01530592 290.01865674 C-238.00860817 283.45543013 -238.00855374 276.89233726 -238.02601242 270.3291235 C-238.04187711 264.30274558 -238.03874441 258.27666644 -238.02144416 252.25029521 C-238.01840348 250.08817335 -238.02189361 247.92602842 -238.03316431 245.76393379 C-238.28546746 193.86165731 -220.51118554 142.60995248 -189.52227402 101.13422108 C-189.06739609 100.52094959 -188.61251816 99.90767811 -188.14385605 99.27582264 C-180.92709963 89.60953509 -172.89765666 80.80426853 -164.52227402 72.13422108 C-163.34084824 70.90832264 -163.34084824 70.90832264 -162.13555527 69.65765858 C-124.35375833 31.20781415 -71.46811369 8.05411069 -18.52227402 1.13422108 C-17.89191903 1.05167888 -17.26156404 0.96913669 -16.61210738 0.88409321 C-11.05268789 0.20669316 -5.59691892 -0.00987561 0 0 Z " fill="#FE0000" transform="translate(237.52227401733398,-0.13422107696533203)"/>
<path d="M0 0 C16.16683771 12.05115357 18.74652075 30.05767356 22.6328125 48.6590271 C23.40279474 52.34241101 24.18473364 56.02322891 24.9659729 59.70423889 C25.37269988 61.62074922 25.77892656 63.53736579 26.18466187 65.4540863 C28.2504242 75.20719117 30.36398636 84.94956033 32.5 94.6875 C32.68517181 95.53246033 32.87034363 96.37742065 33.06112671 97.24798584 C35.96306092 110.47219307 38.98878391 123.66523859 42.0625 136.85043335 C45.22148024 150.41817806 48.17549077 164.02329825 51.06149292 177.65145874 C53.76040444 190.38416409 56.59862788 203.07645225 59.5625 215.75 C62.71857845 229.24617367 65.69124363 242.76818458 68.48196411 256.34469604 C70.34745418 265.41918655 72.31485998 274.45362611 74.5 283.45703125 C74.70898926 284.32641327 74.91797852 285.19579529 75.13330078 286.09152222 C76.13510188 290.25795811 77.15338992 294.41863691 78.20703125 298.57226562 C82.06753168 314.25989405 83.34120098 329.49816987 75.375 344.125 C67.8218743 355.97559376 56.25428802 361.67356808 43 365 C42.34435059 365.16918945 41.68870117 365.33837891 41.01318359 365.51269531 C26.52376724 369.20373111 11.14169578 372.1125704 -2.69140625 364.5234375 C-13.92841027 357.00922718 -21.267195 348.46294096 -24.484375 335.296875 C-24.69366638 334.4708075 -24.90295776 333.64473999 -25.11859131 332.79364014 C-27.18276495 324.52307894 -28.97173173 316.19481659 -30.70825195 307.8503418 C-31.66304454 303.26742344 -32.63520564 298.68820841 -33.609375 294.109375 C-33.80772949 293.17706055 -34.00608398 292.24474609 -34.21044922 291.28417969 C-36.19689074 281.99687864 -38.33606375 272.7472659 -40.5 263.5 C-43.92370987 248.85703034 -47.14248671 234.17834518 -50.26464844 219.46826172 C-52.42528063 209.29113007 -54.61667387 199.12788691 -57 189 C-59.59558577 177.97012084 -61.96004431 166.89610893 -64.3125 155.8125 C-67.41125191 141.21567874 -70.65647903 126.66220047 -74.05361938 112.13208008 C-77.61198176 96.89412899 -80.92284885 81.60782179 -84.16992188 66.30078125 C-84.3526062 65.43978317 -84.53529053 64.5787851 -84.72351074 63.69169617 C-85.06466002 62.08170769 -85.40496418 60.47153981 -85.7442627 58.86116028 C-86.58423523 54.86914775 -86.58423523 54.86914775 -87.53874207 50.90353394 C-88.45707954 47.11370958 -88.26985352 43.1933299 -88.3125 39.3125 C-88.34150391 38.45205078 -88.37050781 37.59160156 -88.40039062 36.70507812 C-88.50487471 26.03966403 -83.3568309 16.87329666 -76.2578125 9.08984375 C-67.20941716 0.54830873 -56.83559254 -2.56181309 -45 -5.375 C-43.9083252 -5.63804932 -42.81665039 -5.90109863 -41.69189453 -6.17211914 C-26.80770562 -9.49398426 -12.86808894 -8.80810366 0 0 Z " fill="#FEFEFE" transform="translate(454,345)"/>
<path d="M0 0 C0.73347656 0.32871094 1.46695313 0.65742188 2.22265625 0.99609375 C12.29623301 5.98968497 18.79860935 13.69658959 23 24 C24.17728487 27.93617817 25.00853037 31.91037335 25.8125 35.9375 C26.321331 38.35189722 26.83183013 40.76594332 27.34375 43.1796875 C27.61058594 44.45295898 27.87742187 45.72623047 28.15234375 47.03808594 C29.45318941 53.17721126 30.8920973 59.2849196 32.31085205 65.39761353 C35.70363806 80.03934896 38.88577739 94.72088215 42.00454712 109.42312622 C44.8765889 122.94527753 47.90921121 136.42210044 51.05718994 149.88247681 C54.53353392 164.76282254 57.7668338 179.68964919 60.90625 194.64453125 C61.25599531 196.3034941 61.60624456 197.96235079 61.95703125 199.62109375 C62.12513809 200.41690857 62.29324493 201.21272339 62.46644592 202.03265381 C63.86830159 208.57839185 65.50120993 215.04971545 67.22949219 221.51635742 C69.8892641 233.54179638 67.59142648 244.44658213 61.3671875 254.90625 C52.63559782 268.27805591 38.81180435 272.88643813 23.8125 276.25 C9.94251994 279.14928917 -4.01840527 280.04585986 -16.5625 272.4375 C-31.89140224 261.36813343 -35.37760014 245.77930948 -39.25 228.3125 C-39.63677688 226.60207936 -40.02416119 224.89179598 -40.41210938 223.18164062 C-43.60271454 209.04978795 -46.6180394 194.87978695 -49.62182617 180.70727539 C-52.1392065 168.85653779 -54.80406897 157.04678277 -57.5625 145.25 C-60.55008591 132.46756241 -63.3882532 119.66420945 -66.0625 106.8125 C-68.60747205 94.58338873 -71.19933801 82.36705953 -73.90109253 70.17147827 C-74.25632475 68.56787067 -74.61060623 66.96405215 -74.96389771 65.36001587 C-75.45091665 63.15081788 -75.941586 60.94246658 -76.43359375 58.734375 C-76.85209595 56.85057129 -76.85209595 56.85057129 -77.27905273 54.92871094 C-77.86427112 52.087745 -77.86427112 52.087745 -79 50 C-80.14363209 37.60752769 -77.64361504 26.26805182 -70.046875 16.28515625 C-60.96002819 6.14048948 -50.51136918 1.90476277 -37.4375 -0.75 C-36.38554443 -0.96462891 -35.33358887 -1.17925781 -34.24975586 -1.40039062 C-22.81823461 -3.60161578 -10.857924 -5.22788933 0 0 Z " fill="#FEFEFE" transform="translate(572,281)"/>
</svg>
